<?xml version="1.0" encoding="UTF-8"?><svg id="USB" xmlns="http://www.w3.org/2000/svg" viewBox="0 0 458.76 796.43"><defs><style>.cls-1{fill:#fff;stroke-width:0px;}</style></defs><path class="cls-1" d="M444.82,235.44h-93.61c-7.7,0-13.94,6.24-13.94,13.94v93.61c0,7.7,6.24,13.94,13.94,13.94h32.45v66.72c0,.53.03,1.09.09,1.62.04.31,3.36,31.42-12.52,49.19-7.69,8.62-18.81,12.8-34,12.8-4.98,0-9.86-.05-14.64-.09-35.87-.35-69.76-.67-92.91,21.6V141.81l70.37,38.46s.02,0,.03.02l.1.06c.23.12.47.21.7.33.28.13.56.28.85.4.42.17.84.29,1.26.42.13.04.26.09.39.12,1.15.3,2.31.45,3.47.45h.03c1.64,0,3.28-.32,4.87-.91.16-.06.33-.1.49-.17.12-.05.24-.12.36-.18.45-.2.91-.42,1.34-.68,0,0,.02,0,.02-.01.46-.27.9-.57,1.31-.89.14-.11.28-.23.42-.34.31-.25.61-.52.9-.8.13-.12.25-.24.37-.37.38-.4.74-.81,1.07-1.25,0,0,.02-.02.02-.03.35-.47.66-.97.95-1.48.03-.05.07-.1.1-.15.06-.1.1-.21.15-.31.12-.23.23-.46.34-.7.09-.2.18-.41.25-.61.08-.2.16-.41.23-.62.08-.24.15-.48.22-.72.05-.18.1-.37.14-.56.06-.26.12-.51.16-.77.03-.19.06-.37.09-.56.03-.25.06-.5.08-.75.02-.21.03-.42.03-.63,0-.23.01-.45,0-.68,0-.24-.02-.48-.03-.72-.01-.19-.03-.39-.05-.58-.03-.27-.07-.53-.11-.8-.03-.17-.06-.34-.1-.51-.06-.27-.12-.54-.19-.8-.05-.18-.1-.35-.15-.52-.08-.25-.16-.49-.25-.74-.07-.2-.15-.39-.24-.59-.09-.21-.18-.42-.28-.62-.11-.23-.23-.45-.35-.67-.06-.1-.1-.21-.16-.31L227.75,6.83s-.01-.02-.02-.03c-.47-.79-1.02-1.54-1.65-2.24-.95-1.05-2.05-1.94-3.23-2.64,0,0,0,0,0,0-.04-.03-.09-.04-.14-.07-.34-.2-.69-.39-1.05-.55-.21-.1-.43-.18-.65-.27-.19-.08-.39-.17-.59-.24-.29-.1-.58-.18-.87-.27-.14-.04-.27-.08-.41-.12-.31-.08-.61-.13-.92-.19-.14-.03-.27-.05-.4-.08-.29-.04-.58-.07-.87-.09-.16-.02-.33-.03-.49-.04-.25-.01-.51,0-.76,0-.21,0-.41,0-.62,0-.21.01-.42.04-.63.05-.24.02-.49.04-.74.08-.18.03-.36.07-.54.1-.26.05-.53.1-.79.17-.18.04-.36.1-.54.15-.25.07-.5.14-.75.23-.23.08-.46.18-.68.27-.19.08-.38.15-.56.23-.37.17-.73.37-1.09.57-.04.02-.07.04-.11.06,0,0,0,0,0,0-1.19.7-2.28,1.58-3.23,2.64-.63.69-1.18,1.45-1.65,2.24,0,0,0,.02-.02.03l-91.13,154.18c-.06.1-.11.21-.16.31-.12.22-.24.45-.35.67-.1.21-.19.41-.28.62-.08.19-.16.39-.24.59-.09.24-.18.49-.25.74-.05.17-.1.34-.15.52-.07.27-.14.53-.19.8-.04.17-.07.34-.1.52-.05.26-.08.53-.11.79-.02.19-.04.39-.05.59-.02.24-.03.48-.03.72,0,.23,0,.45,0,.68,0,.21.02.42.03.63.02.25.05.5.08.75.03.19.05.38.09.56.04.26.1.51.16.77.04.19.09.38.14.56.07.24.14.48.22.72.07.21.15.41.23.62.08.21.17.41.25.61.1.24.22.47.34.7.05.1.09.21.15.31.03.05.07.1.1.15.29.51.6,1.01.95,1.48.01.02.03.03.04.04.32.43.68.84,1.06,1.24.12.13.25.25.38.38.28.27.58.54.88.79.14.12.28.24.43.35.42.32.85.61,1.31.89,0,0,.01,0,.02.01.43.25.88.47,1.34.68.12.05.24.13.36.18.14.06.28.09.42.14,1.61.61,3.28.94,4.94.94h.03c1.16,0,2.32-.15,3.47-.45.14-.04.27-.09.41-.13.42-.12.83-.25,1.25-.41.29-.12.56-.26.84-.4.23-.11.47-.2.7-.33l.1-.06s.02-.01.03-.02l70.37-38.46v404.37c-2.32-2.18-4.77-4.18-7.4-5.99-21.68-14.95-50.39-14.94-80.63-14.93h-2.62c-10.97,0-19.24-3.24-25.28-9.9-13.15-14.51-13.58-42.68-12.64-52.28.05-.47.07-.95.07-1.43v-70.04c25.66-6.41,44.73-29.64,44.73-57.26,0-32.54-26.48-59.02-59.02-59.02S0,301.8,0,334.34c0,27.87,19.42,51.27,45.43,57.42v69.25c-.54,6.47-3,47.82,19.7,72.97,11.47,12.71,26.96,19.16,46.03,19.16h2.63c26.96-.02,50.27-.02,64.79,10,9.82,6.77,22.87,22.01,22.87,75.94,0,1.07.13,2.11.36,3.12v16.21c-31.78,6.48-55.77,34.64-55.77,68.31,0,38.44,31.27,69.71,69.71,69.71s69.71-31.27,69.71-69.71c0-33.67-23.99-61.83-55.77-68.31v-52.97c0-38.66,6.19-63.59,18.94-76.21,14.9-14.75,40.84-14.49,73.69-14.18,4.87.05,9.85.1,14.92.1,23.34,0,41.82-7.49,54.93-22.26,22.49-25.35,20-63.34,19.38-69.95v-66.01h33.28c7.7,0,13.94-6.24,13.94-13.94v-93.61c0-7.7-6.24-13.94-13.94-13.94ZM27.88,334.34c0-17.17,13.97-31.14,31.14-31.14s31.14,13.97,31.14,31.14-13.97,31.14-31.14,31.14c-17.17,0-31.14-13.97-31.14-31.14ZM215.75,41.33l53.33,90.23-46.65-25.49s-.09-.04-.13-.06c-.23-.12-.47-.23-.71-.34-.19-.09-.38-.18-.57-.26-.18-.08-.37-.14-.55-.2-.25-.09-.51-.19-.76-.26-.11-.03-.22-.06-.33-.09-.33-.09-.66-.18-.99-.24-.05,0-.1-.01-.15-.02-.39-.07-.79-.13-1.18-.17-.06,0-.12,0-.18,0-.38-.03-.76-.05-1.14-.05-.17,0-.34.02-.51.02-.27,0-.54.02-.81.04-.25.02-.49.07-.73.1-.2.03-.4.05-.6.09-.24.05-.47.11-.7.17-.21.05-.42.1-.62.16-.19.06-.38.13-.57.2-.25.09-.5.17-.74.27-.15.06-.29.13-.44.2-.28.13-.56.26-.84.4-.03.02-.07.03-.1.05l-46.65,25.49,53.33-90.23ZM257.58,726.72c0,23.06-18.76,41.82-41.83,41.82s-41.83-18.76-41.83-41.82,18.76-41.83,41.83-41.83,41.83,18.76,41.83,41.83ZM430.88,329.05h-65.73v-65.73h65.73v65.73Z"/></svg>