<?xml version="1.0" encoding="UTF-8"?><svg id="IDEA" xmlns="http://www.w3.org/2000/svg" viewBox="0 0 797.22 751.22"><defs><style>.cls-1{fill:#fff;stroke-width:0px;}</style></defs><path class="cls-1" d="M398.66,0C252.21,0,133.07,119.15,133.07,265.6c0,97.6,52.52,186.01,137.65,232.8v67.93h-.06v54.28h-.08v82.33h76.75c1.59,26.9,23.97,48.29,51.25,48.29s49.66-21.4,51.25-48.29h76.7v-54.28h.08v-82.33h0v-67.93c85.14-46.79,137.65-135.2,137.65-232.8,0-146.45-119.14-265.6-265.59-265.6ZM298.71,594.37h199.84v26.22h-199.84v-26.22ZM398.58,723.16c-13.08,0-21.61-10-23.06-20.24h46.13c-1.51,11.4-11.27,20.24-23.07,20.24ZM498.48,674.87h-199.84v-26.22h199.84v26.22ZM506.22,477.44l-7.67,3.9v84.2h-85.91v-207.27l83.2-83.2c5.48-5.48,5.48-14.36,0-19.84s-14.36-5.48-19.84,0l-77.39,77.39-77.39-77.39c-5.48-5.48-14.36-5.48-19.84,0-5.48,5.48-5.48,14.36,0,19.84l83.2,83.2v207.27h-85.81v-84.2l-7.67-3.9c-80.18-40.79-129.98-121.97-129.98-211.85,0-130.98,106.56-237.54,237.54-237.54s237.54,106.56,237.54,237.54c0,89.88-49.81,171.06-129.98,211.85Z"/><path class="cls-1" d="M472.68,85.04c-7.75,0-14.03,6.28-14.03,14.03s6.28,14.03,14.03,14.03c22.06,0,73.77,26.5,73.77,77.9,0,7.75,6.28,14.03,14.03,14.03s14.03-6.28,14.03-14.03c0-69.56-66.29-105.95-101.83-105.95Z"/><path class="cls-1" d="M91.65,292.44c0-7.75-6.28-14.03-14.03-14.03H14.03c-7.75,0-14.03,6.28-14.03,14.03s6.28,14.03,14.03,14.03h63.59c7.75,0,14.03-6.28,14.03-14.03Z"/><path class="cls-1" d="M96.46,108.98c2.74,2.74,6.33,4.11,9.92,4.11s7.18-1.37,9.92-4.11c5.48-5.48,5.48-14.36,0-19.84l-44.96-44.97c-5.47-5.48-14.36-5.48-19.84,0-5.48,5.48-5.48,14.36,0,19.84l44.96,44.97Z"/><path class="cls-1" d="M96.46,475.9l-44.97,44.97c-5.48,5.48-5.48,14.36,0,19.84,2.74,2.74,6.33,4.11,9.92,4.11s7.18-1.37,9.92-4.11l44.97-44.97c5.48-5.48,5.48-14.36,0-19.83-5.48-5.48-14.36-5.48-19.84,0Z"/><path class="cls-1" d="M783.19,278.42h-63.59c-7.75,0-14.03,6.28-14.03,14.03s6.28,14.03,14.03,14.03h63.59c7.75,0,14.03-6.28,14.03-14.03s-6.28-14.03-14.03-14.03Z"/><path class="cls-1" d="M690.84,113.09c3.59,0,7.18-1.37,9.92-4.11l44.97-44.97c5.48-5.48,5.48-14.36,0-19.84-5.48-5.48-14.36-5.48-19.84,0l-44.97,44.97c-5.48,5.48-5.48,14.36,0,19.84,2.74,2.74,6.33,4.11,9.92,4.11Z"/><path class="cls-1" d="M700.76,475.9c-5.47-5.47-14.36-5.47-19.84,0-5.48,5.47-5.48,14.35,0,19.83l44.97,44.97c2.74,2.74,6.33,4.11,9.92,4.11s7.18-1.37,9.92-4.11c5.48-5.48,5.48-14.36,0-19.84l-44.97-44.97Z"/></svg>