<?xml version="1.0" encoding="UTF-8"?><svg id="Layer_1" xmlns="http://www.w3.org/2000/svg" viewBox="0 0 765.62 736.09"><defs><style>.cls-1{fill:#fff;stroke-width:0px;}</style></defs><path class="cls-1" d="M382.81,167.66c30.94,0,55.31-26.09,55.31-55.31,0-30.94-24.38-55.31-55.31-55.31s-55.31,24.37-55.31,55.31,24.38,55.31,55.31,55.31ZM382.81,86.09c14.69,0,24.38,11.41,24.38,24.37s-11.41,24.37-24.38,24.37-24.38-9.84-24.38-24.37c0-12.97,9.69-24.37,24.38-24.37Z"/><path class="cls-1" d="M157.97,477.19c-30.94,0-55.31,24.38-55.31,55.31s24.37,55.31,55.31,55.31,55.31-24.38,55.31-55.31-24.38-55.31-55.31-55.31ZM157.97,555.31c-12.97,0-24.37-11.41-24.37-24.38s9.84-24.38,24.37-24.38c12.97,0,24.37,11.41,24.37,24.38s-9.69,24.38-24.37,24.38Z"/><path class="cls-1" d="M607.66,420.16c-51.56,0-96.88,24.06-125.62,61.72l-84.53-77.03v-89.53c79.69-7.5,143.28-75.94,143.28-157.34C540.78,70,470.78,0,382.81,0s-157.97,71.56-157.97,157.81,63.75,150,143.28,157.34v88.59l-84.84,77.5c-28.75-37.34-74.06-61.25-125.31-61.25C70,420.16,0,490.16,0,578.12s71.72,157.97,157.97,157.97,157.97-70,157.97-157.97c0-25.16-5.78-48.91-15.94-69.84l82.19-75.62,83.28,75.94c-10.16,20.94-15.78,44.53-15.78,69.53,0,87.97,71.72,157.97,157.97,157.97s157.97-70,157.97-157.97-70-157.97-157.97-157.97h0ZM86.88,683.28c7.81-24.69,30.16-41.72,56.56-41.72h29.38c26.25,0,48.59,17.03,56.56,41.72-20.31,13.75-44.84,21.88-71.09,21.88s-51.09-8.13-71.41-21.88ZM253.44,661.87c-15.47-29.37-46.09-49.69-80.62-49.69h-29.37c-35.94,0-66.72,19.22-81.41,48.75-19.22-22.34-30.94-51.25-30.94-82.97,0-70,57.03-127.03,127.03-127.03s127.03,57.03,127.03,127.03c-.16,32.19-12.03,61.56-31.72,83.91h0ZM382.81,284.84c-26.41,0-50.78-8.12-71.09-21.88,7.81-24.69,30.16-41.72,56.56-41.72h29.38c26.25,0,48.59,17.03,56.56,41.72-20.63,13.91-45,21.88-71.41,21.88ZM255.78,157.81c0-70,57.03-127.03,127.03-127.03s127.03,57.03,127.03,127.03c0,32.03-12.03,61.41-31.72,83.75-15.47-29.38-46.09-49.69-80.63-49.69h-29.38c-35.94,0-66.72,19.22-81.41,48.75-19.22-22.03-30.94-51.09-30.94-82.81ZM536.41,683.28c7.81-24.69,30.16-41.72,56.56-41.72h29.37c26.25,0,48.59,17.03,56.56,41.72-20.31,13.75-44.84,21.88-71.09,21.88s-51.09-8.13-71.41-21.88ZM702.97,661.87c-15.47-29.37-46.09-49.69-80.63-49.69h-29.37c-35.94,0-66.72,19.22-81.41,48.75-19.22-22.34-30.94-51.25-30.94-82.97,0-70,57.03-127.03,127.03-127.03s127.03,57.03,127.03,127.03c0,32.19-12.03,61.56-31.72,83.91h0Z"/><path class="cls-1" d="M607.66,477.19c-30.94,0-55.31,24.38-55.31,55.31s24.38,55.31,55.31,55.31,55.31-24.38,55.31-55.31-24.38-55.31-55.31-55.31ZM607.66,555.31c-12.97,0-24.38-11.41-24.38-24.38s9.84-24.38,24.38-24.38,24.38,11.41,24.38,24.38-9.69,24.38-24.38,24.38Z"/></svg>