<?xml version="1.0" encoding="UTF-8"?><svg id="CLOUD_DATABASE" xmlns="http://www.w3.org/2000/svg" viewBox="0 0 795.63 797.49"><defs><style>.cls-1{fill:#fff;stroke-width:0px;}</style></defs><path class="cls-1" d="M704.55,166.06c-6.4-44.29-27.95-84.98-61.28-115.4C607.47,17.99,561.05,0,512.55,0c-60.93,0-117.7,28.34-154.34,76.44-19.97-10.12-42.08-15.42-64.68-15.42-61.49,0-115.42,38.89-135.26,96.03-5-.53-10.03-.79-15.06-.79C64.25,156.26,0,220.51,0,299.48s64.25,143.22,143.22,143.22c2.39,0,4.85-.06,7.35-.19.38.03.77.05,1.16.05h47.52v87.32c0,17.51,11.4,42.45,65.7,61.86,32.8,11.73,74.76,18.88,119.86,20.58v62.99c-22.92,5.32-40.99,23.39-46.3,46.31h-184.78c-7.72,0-13.98,6.26-13.98,13.98s6.26,13.97,13.98,13.97h184.79c6.36,27.42,30.96,47.92,60.28,47.92s53.92-20.5,60.28-47.92h184.79c7.72,0,13.98-6.26,13.98-13.97s-6.26-13.98-13.98-13.98h-184.79c-5.31-22.92-23.39-41-46.3-46.31v-62.65c50.46-.62,97.84-7.98,134.05-20.93,54.3-19.41,65.7-44.35,65.7-61.86v-87.32h33.57c2.23.1,4.3.15,6.33.15s4.24-.05,6.57-.16c.03,0,.06,0,.08,0,76.58-3.51,136.56-66.35,136.56-143.06,0-59.55-36.23-112.08-91.08-133.43ZM429.68,721.63c1.94,4.27,3.05,8.99,3.05,13.98s-1.11,9.71-3.05,13.97c-5.34,11.76-17.16,19.97-30.89,19.97s-25.55-8.21-30.89-19.97c-1.94-4.27-3.05-8.99-3.05-13.97s1.11-9.71,3.05-13.98c5.34-11.75,17.16-19.96,30.89-19.96s25.55,8.21,30.89,19.96ZM584.56,529.88c0,22.38-69.61,54.9-178.68,54.9s-178.68-32.52-178.68-54.9v-36.69c9.37,6.38,21.67,12.62,37.75,18.37,37.86,13.54,87.91,20.99,140.93,20.99s103.07-7.45,140.93-20.99c16.08-5.75,28.38-11.99,37.75-18.37v36.69h0ZM584.56,449.69c0,22.38-69.61,54.9-178.68,54.9s-178.68-32.52-178.68-54.9v-33.95c9.37,6.38,21.67,12.62,37.75,18.37,8.83,3.16,18.35,5.97,28.39,8.45,33,8.15,71.89,12.54,112.54,12.54s79.54-4.4,112.54-12.54c10.04-2.48,19.56-5.29,28.39-8.45,16.08-5.75,28.38-11.98,37.75-18.37v33.95h0ZM227.19,372.25c0-22.39,69.61-54.9,178.68-54.9s178.68,32.52,178.68,54.9c0,13.57-25.6,30.84-70.03,42.36-28.88,7.48-65.69,12.54-108.65,12.54s-79.78-5.06-108.66-12.54c-44.42-11.52-70.03-28.79-70.03-42.36ZM657.86,414.62s-.05,0-.08,0c-3.85.18-6.9.18-10.73,0-.21-.01-.43-.02-.64-.02h-33.89v-46.02c0-1.79-.35-3.49-.96-5.06-3.66-16.46-18.94-36.76-64.74-53.14-37.86-13.53-87.91-20.99-140.93-20.99s-103.08,7.46-140.93,20.99c-54.3,19.42-65.7,44.36-65.7,61.86v42.36h-45.55c-.94-.14-1.9-.17-2.87-.11-2.6.17-5.16.25-7.6.25-63.56,0-115.27-51.71-115.27-115.27s51.71-115.27,115.27-115.27c7.48,0,14.98.73,22.28,2.16,7.32,1.43,14.43-3.1,16.24-10.31,12.88-51.27,58.85-87.08,111.79-87.08,21.77,0,42.98,6.1,61.33,17.65,6.43,4.05,14.91,2.22,19.1-4.12,30.89-46.69,82.7-74.57,138.59-74.57,85.89,0,156.94,64.37,165.26,149.74.54,5.56,4.34,10.26,9.66,11.96,47.97,15.3,80.2,59.44,80.2,109.84,0,61.72-48.23,112.27-109.82,115.13Z"/></svg>