<?xml version="1.0" encoding="UTF-8"?><svg id="SECURITY" xmlns="http://www.w3.org/2000/svg" viewBox="0 0 706.76 797.81"><defs><style>.cls-1{fill:#fff;stroke-width:0px;}</style></defs><path class="cls-1" d="M661.64,509.55v-223.59c25.86-6.29,45.12-29.63,45.12-57.4,0-32.58-26.5-59.09-59.08-59.09-16.92,0-32.18,7.16-42.97,18.59l-194.63-112.37c1.55-5.27,2.39-10.84,2.39-16.6,0-32.58-26.5-59.09-59.08-59.09s-59.08,26.51-59.08,59.09c0,5.76.85,11.33,2.39,16.6l-194.63,112.37c-10.78-11.43-26.05-18.59-42.96-18.59-32.58,0-59.09,26.51-59.09,59.09,0,27.77,19.26,51.11,45.12,57.4v223.6C19.26,515.85,0,539.19,0,566.96,0,599.54,26.51,626.04,59.09,626.04c16.18,0,30.86-6.54,41.54-17.12l196.05,113.19c-1.55,5.27-2.39,10.84-2.39,16.6,0,32.58,26.51,59.09,59.08,59.09s59.08-26.51,59.08-59.09c0-5.76-.84-11.33-2.39-16.6l196.06-113.2c10.68,10.58,25.36,17.12,41.54,17.12,32.58,0,59.08-26.51,59.08-59.09,0-27.77-19.26-51.11-45.12-57.41ZM616.75,570.54c-.13-1.18-.22-2.37-.22-3.58,0-12.15,7.01-22.67,17.18-27.8,4.21-2.12,8.94-3.35,13.97-3.35s9.76,1.22,13.96,3.35c10.18,5.13,17.18,15.65,17.18,27.8,0,17.18-13.97,31.15-31.15,31.15-5.66,0-10.96-1.54-15.54-4.2-8.33-4.82-14.24-13.38-15.39-23.38ZM630.21,202.78c4.98-3.39,10.99-5.37,17.46-5.37,17.18,0,31.15,13.97,31.15,31.15,0,12.15-7.01,22.67-17.18,27.8-4.21,2.12-8.94,3.35-13.97,3.35s-9.76-1.22-13.97-3.35c-10.17-5.13-17.18-15.65-17.18-27.8,0-.47.05-.92.07-1.38.45-10.13,5.72-19.03,13.61-24.4ZM322.23,59.09c0-17.18,13.97-31.15,31.15-31.15s31.15,13.97,31.15,31.15c0,.61-.05,1.2-.09,1.8-.58,10.11-5.97,18.94-13.95,24.2-4.91,3.24-10.79,5.14-17.1,5.14s-12.19-1.9-17.1-5.14c-7.98-5.26-13.37-14.09-13.95-24.2-.04-.6-.09-1.19-.09-1.8ZM27.94,228.56c0-17.18,13.97-31.15,31.15-31.15,6.47,0,12.48,1.98,17.46,5.37,7.89,5.36,13.17,14.26,13.61,24.4.02.46.07.91.07,1.38,0,12.15-7.01,22.67-17.18,27.8-4.21,2.12-8.94,3.34-13.96,3.34s-9.76-1.22-13.97-3.35c-10.17-5.13-17.18-15.65-17.18-27.8ZM74.63,593.92c-4.58,2.65-9.88,4.19-15.54,4.19-17.18,0-31.15-13.97-31.15-31.15,0-12.15,7.01-22.67,17.18-27.8,4.21-2.12,8.94-3.35,13.97-3.35s9.76,1.22,13.96,3.34c10.17,5.13,17.18,15.65,17.18,27.81,0,1.21-.09,2.4-.22,3.58-1.15,10-7.05,18.55-15.39,23.38ZM384.52,738.72c0,17.18-13.97,31.15-31.15,31.15s-31.15-13.97-31.15-31.15c0-.61.06-1.2.09-1.8.58-10.11,5.98-18.94,13.95-24.21,4.91-3.24,10.79-5.14,17.1-5.14s12.19,1.9,17.1,5.14c7.98,5.27,13.37,14.1,13.95,24.21.03.6.09,1.19.09,1.8ZM396.07,697.94c-10.76-11.27-25.92-18.31-42.7-18.31s-31.93,7.04-42.69,18.31l-195.38-112.8c1.86-5.73,2.87-11.84,2.87-18.18,0-27.77-19.26-51.11-45.12-57.41v-223.59c25.86-6.29,45.12-29.64,45.12-57.4,0-5.63-.81-11.07-2.29-16.23l194.8-112.46c10.76,11.27,25.92,18.31,42.69,18.31s31.93-7.04,42.7-18.31l194.8,112.46c-1.47,5.16-2.28,10.6-2.28,16.23,0,27.77,19.26,51.11,45.12,57.4v223.6c-25.86,6.29-45.12,29.64-45.12,57.4,0,6.34,1.02,12.45,2.88,18.18l-195.39,112.81Z"/><path class="cls-1" d="M516.8,331.55l-154.82-120.96c-5.05-3.95-12.15-3.95-17.2,0l-154.82,120.96c-3.39,2.65-5.37,6.71-5.37,11.01,0,103.8,44.63,165.43,82.08,198.85,40.67,36.3,81.29,47.8,83,48.27,1.22.33,2.47.5,3.71.5s2.5-.17,3.71-.5c1.71-.47,42.32-11.97,83-48.27,37.44-33.42,82.08-95.05,82.08-198.85,0-4.3-1.98-8.36-5.37-11.01ZM422.41,519.74c-29.18,26.36-58.84,38.24-69.05,41.81-10.08-3.48-39-15.02-68.08-40.98-46.81-41.78-71.24-99.37-72.68-171.25l140.78-110,140.78,110c-1.42,71.38-25.54,128.69-71.75,170.42Z"/></svg>